<svg width="20" height="19" viewBox="0 0 20 19" fill="none" xmlns="http://www.w3.org/2000/svg">
<path d="M9.12265 3.6882C9.50196 2.99466 10.498 2.99466 10.8774 3.6882L12.2003 6.10714C12.4756 6.61051 12.8895 7.02438 13.3929 7.29968L15.8118 8.62265C16.5053 9.00196 16.5053 9.99804 15.8118 10.3774L13.3929 11.7003C12.8895 11.9756 12.4756 12.3895 12.2003 12.8929L10.8774 15.3118C10.498 16.0053 9.50196 16.0053 9.12265 15.3118L7.79968 12.8929C7.52438 12.3895 7.11051 11.9756 6.60714 11.7003L4.1882 10.3774C3.49466 9.99804 3.49466 9.00196 4.1882 8.62265L6.60714 7.29968C7.11051 7.02438 7.52438 6.61051 7.79968 6.10714L9.12265 3.6882Z" fill="url(#paint0_linear_1196_18240)" stroke="url(#paint1_linear_1196_18240)" stroke-width="2"/>
<defs>
<linearGradient id="paint0_linear_1196_18240" x1="0.5" y1="9.63768" x2="19.5" y2="9.63768" gradientUnits="userSpaceOnUse">
<stop stop-color="#FF5093"/>
<stop offset="1" stop-color="#9A37E7"/>
</linearGradient>
<linearGradient id="paint1_linear_1196_18240" x1="0.5" y1="9.63768" x2="19.5" y2="9.63768" gradientUnits="userSpaceOnUse">
<stop stop-color="#FF5093"/>
<stop offset="1" stop-color="#9A37E7"/>
</linearGradient>
</defs>
</svg>
